<?xml version="1.0" encoding="UTF-8"?>
<svg id="cloud" xmlns="http://www.w3.org/2000/svg" viewBox="0 0 1414 508.03">
  <path d="M1414,378.7c0,129.33-179.33,129.33-225.91,129.33H156.18C69.92,508.03,0,458.28,0,396.9c0-91.68,113-129.87,178-94.87-9-108,128-199,250-142C480,44.03,569.01,1.82,673,.03c116-2,219,101,233,183,91-91,228,14,206,97,59-109,302-90.67,302,98.67Z" style="fill: #fff;"/>
  <path d="M1180.92,491.02H165.05C-34,477.03,27,355.03,27,355.03c0,0-18,73.13,138.05,73.13h1015.87c226.08,0,198.08-122.13,198.08-122.13,0,0,94,187-198.08,184.99Z" style="fill: #f2f2f2;"/>
</svg>