<?xml version="1.0" encoding="UTF-8"?>
<svg id="snowman" data-name="snowman" xmlns="http://www.w3.org/2000/svg" viewBox="0 0 652.94 745.97">
  <g id="Layer_1" data-name="Layer 1">
    <g>
      <g>
        <g>
          <polygon points="0 224.88 77.54 290.99 101.96 347.92 152.41 465.56 176.34 455.31 119.79 331.74 89.66 265.9 97.81 165.86 89.66 165.86 74.9 261.03 8.81 208.16 0 224.88" style="fill: #8c6239;"/>
          <path d="M101.96,347.92l50.45,117.64,23.92-10.26-56.54-123.56c-6.26,5.03-12.23,10.44-17.83,16.18Z" style="fill: #774c29;"/>
        </g>
        <g>
          <path d="M511.99,425.28c-26.04-42.22-63.89-77.67-108.66-98.82-1.19-.56-2.39-1.12-3.6-1.67-.16-.07-.33-.14-.48-.21,27.32-16.69,47.11-40.94,54.51-68.88,2.11-7.92,3.21-16.13,3.21-24.56,0-.73-.02-1.45-.04-2.18-.06-2.95-.26-5.89-.6-8.79-1.26-10.95-6.72-20.99-15.07-28.2-18.99-16.42-51.79-37.13-76.46-45.5-44.98-15.26-65.58-18.97-99.04-22.73-7.05-.79-14.2,.12-20.77,2.81-15.02,6.14-28.54,14.3-40,24.05-24.72,21-39.86,49.34-39.86,80.54,0,1.52,.03,3.03,.11,4.53,1.72,36.24,23.89,68.26,57.5,88.83-7.59,3.39-14.99,7.19-22.17,11.37-.43,.25-.85,.5-1.28,.75-33.34,19.65-62,47.35-83.62,79.6-27.47,40.95-43.62,89.23-43.62,137.64s22.8,93.66,60.33,127.59c43.78,39.57,107.61,64.5,178.69,64.5,91.89,0,171.67-41.67,211.66-102.79,17.46-26.68,27.35-57.07,27.35-89.31,0-44.67-13.98-89.52-38.08-128.58Z" style="fill: #fff;"/>
          <path d="M132.37,681.45s48.18,62.88,178.69,64.5c91.88,1.14,170.94-39.19,211.66-102.79,30.28-47.28,27.35-89.31,27.35-89.31,0,0-48.88,105.33-182.22,147.81-98.96,31.52-235.48-20.22-235.48-20.22Z" style="fill: #f2f2f2;"/>
        </g>
        <g>
          <polygon points="477.45 437.01 488.16 454.88 528.83 412.29 583.07 355.46 652.94 346.5 644.13 327.12 585.97 333.28 595.2 277.77 576.53 277.77 560.67 355.46 515.42 399.79 477.45 437.01" style="fill: #8c6239;"/>
          <path d="M515.42,399.79l-37.98,37.21,10.71,17.88,40.67-42.6c-4.58-4.03-9.02-8.22-13.4-12.49Z" style="fill: #774c29;"/>
        </g>
      </g>
      <path d="M204.98,150.6c42.97-5.85,106.93-3.45,179.59,35.84,38.73,20.95,60.04,50.45,69.18,69.26,2.11-7.92,3.21-16.13,3.21-24.56,0-.73-.02-1.45-.04-2.18-.06-2.95-.26-5.89-.6-8.79-1.26-10.95-6.72-20.99-15.07-28.2-18.99-16.42-51.79-37.13-76.46-45.5-44.98-15.26-65.58-18.97-99.04-22.73-7.05-.79-14.2,.12-20.77,2.81-15.02,6.14-28.54,14.3-40,24.05Z" style="fill: #f2f2f2;"/>
      <g>
        <path d="M305.49,223.71c-5.9-12.03-93.1-40.45-95.77-32.67-5.29,15.36,62.62,80.92,72.25,76.16,14.16-7,28.32-33.69,23.52-43.49Z" style="fill: #f2f2f2;"/>
        <path d="M347.23,186.75c22.28,0,22.32,34.62,0,34.62s-22.32-34.62,0-34.62Z" style="fill: #f2f2f2;"/>
        <path d="M246.78,165.61c22.28,0,22.32,34.62,0,34.62s-22.32-34.62,0-34.62Z" style="fill: #f2f2f2;"/>
        <g>
          <path d="M244.13,161.46c19.28,0,19.31,29.96,0,29.96s-19.31-29.96,0-29.96Z" style="fill: #42210b;"/>
          <path d="M237.27,170.83c5.25,0,5.26,8.16,0,8.16s-5.26-8.16,0-8.16Z" style="fill: #fff;"/>
        </g>
        <g>
          <path d="M347.23,179.7c22.28,0,22.32,34.62,0,34.62s-22.32-34.62,0-34.62Z" style="fill: #42210b;"/>
          <path d="M339.3,190.54c6.07,0,6.08,9.43,0,9.43s-6.08-9.43,0-9.43Z" style="fill: #fff;"/>
        </g>
        <g>
          <path d="M254.8,278.2c-4.73,.29-5.19-7.06-.46-7.35,4.73-.29,5.19,7.06,.46,7.35Z" style="fill: #42210b;"/>
          <path d="M273.86,282.36c-4.73,.29-5.19-7.06-.46-7.35,4.73-.29,5.19,7.06,.46,7.35Z" style="fill: #42210b;"/>
          <path d="M293.58,281.83c-4.73,.29-5.19-7.06-.46-7.35,4.73-.29,5.19,7.06,.46,7.35Z" style="fill: #42210b;"/>
          <path d="M314.14,275.91c-4.73,.29-5.19-7.06-.46-7.35,4.73-.29,5.19,7.06,.46,7.35Z" style="fill: #42210b;"/>
          <path d="M331.25,267.56c-4.73,.29-5.19-7.06-.46-7.35,4.73-.29,5.19,7.06,.46,7.35Z" style="fill: #42210b;"/>
          <path d="M342.96,258.19c-4.73,.29-5.19-7.06-.46-7.35,4.73-.29,5.19,7.06,.46,7.35Z" style="fill: #42210b;"/>
          <path d="M216.24,235.95c4.73-.29,5.19,7.06,.46,7.35-4.73,.29-5.19-7.06-.46-7.35Z" style="fill: #42210b;"/>
          <path d="M236.53,260.75c4.73-.29,5.19,7.06,.46,7.35-4.73,.29-5.19-7.06-.46-7.35Z" style="fill: #42210b;"/>
          <path d="M224.31,248.48c4.73-.29,5.19,7.06,.46,7.35-4.73,.29-5.19-7.06-.46-7.35Z" style="fill: #42210b;"/>
        </g>
        <ellipse cx="379.78" cy="239.44" rx="20.27" ry="13.66" style="fill: #ed1c24; opacity: .2;"/>
        <ellipse cx="205.31" cy="206.84" rx="20.27" ry="13.66" style="fill: #ed1c24; opacity: .2;"/>
        <path d="M305.49,209.61c-5.9-12.03-93.1-40.45-95.77-32.67-5.29,15.36,62.62,80.92,72.25,76.16,14.16-7,28.32-33.69,23.52-43.49Z" style="fill: #f15a24;"/>
        <path d="M270.48,197.03c2.2,1.06,4.41,2.23,6.07,4.02,1.66,1.79,2.7,4.32,2.14,6.7-.92,3.88-5.46,5.67-9.44,5.95-7.8,.56-15.44-2.24-22.48-5.65-5.82-2.82-11.89-6.36-16.14-11.33-2.38-2.78-4.86-9.21-.22-11.41,4.34-2.06,15.03,2.7,19.39,3.96,7.08,2.06,14.04,4.54,20.69,7.75Z" style="fill: #fff; opacity: .2;"/>
      </g>
      <g>
        <circle cx="517.3" cy="290.57" r="46.19" transform="translate(115.99 727.58) rotate(-76.76)" style="fill: #fff;"/>
        <path d="M560.21,273.46s17.23,38.19-19.81,57.39c-36.59,18.96-59.38-11.62-59.38-11.62,0,0,31.41,14.04,53.9,1.99,22.49-12.04,25.29-47.76,25.29-47.76Z" style="fill: #e6e6e6;"/>
        <path d="M525.17,275.11l-15.06,2.65-94.36-111.95L204.15,100.56s30.76-35.96,76.7-64.88c41.88-26.35,96.38-46.85,151.68-28.92,26.63,8.63,45.67,38.15,59.25,74.65,29.81,80.07,33.39,193.7,33.39,193.7Z" style="fill: #c1272d;"/>
        <path d="M525.12,274.87l-15.06,2.65-94.36-111.95L204.15,100.56s6.29-7.6,10.18-11.04c16.44-9.83,86.72-.9,145.48,20.44,31,11.26,130.3,47.33,150.71,40.17,16.03,79.61,14.59,124.74,14.59,124.74Z" style="fill: #a51620;"/>
        <path d="M498.77,189.71c-1.45,30.71-43.33,25.81-43.33,25.81,0,0-44-50-120-74-98.37-31.06-137,15-137,15,0,0-27.33-8.42-15.84-39,8.17-21.75,67.86-37.37,160.14,0,105.46,42.71,157.92,32.44,156.04,72.19Z" style="fill: #fff;"/>
        <path d="M482.22,212.33c-13.61,5.29-26.78,3.18-26.78,3.18,0,0-60.94-55.67-112.94-71.67-105.95-32.6-144.06,12.67-144.06,12.67,0,0-7.26-2.44-11.38-7.14,15.64-.45,35.49-20.71,73.71-22.62,42.98-2.15,112.16,14.85,145.05,38.85,23.54,17.18,45,36.8,76.39,46.73Z" style="fill: #e6e6e6;"/>
      </g>
      <g>
        <path d="M487.52,474.02s-4.87-24.49-5.79-27.95c-1.81-6.76-3.77-13.12-5.83-19.1-2.63-7.64-5.45-14.65-8.36-21.08-2.78-6.16-5.65-11.77-8.55-16.89-.2-.37-.41-.74-.62-1.1-18.64-32.59-37.68-44.44-37.68-44.44l-68.38,26.64s14.01,14.89,27.55,37.43c3.42,5.69,6.82,11.89,9.95,18.45,1.93,4.04,3.76,8.21,5.42,12.5,1.03,2.64,2.01,5.33,2.91,8.05,2.08,6.32,3.21,12.96,4.94,19.47,4.14,15.56,3.44,24.97,3.44,24.97l81.01-16.95Z" style="fill: #c1272d;"/>
        <path d="M458.35,387.9c.21,.36,.42,.73,.62,1.1-2.66,2.35-5.38,4.62-8.08,6.85-9.69,7.98-19.53,15.78-29.52,23.37-8.61,6.58-17.33,12.98-26.15,19.26-1.67-4.29-3.49-8.47-5.42-12.5-3.13-6.56-6.53-12.75-9.95-18.45-13.55-22.53-27.55-37.43-27.55-37.43l68.38-26.64s19.04,11.85,37.68,44.44Z" style="fill: #42210b; opacity: .3;"/>
        <path d="M462.16,372.95c-4.11,1.48-10.45,4.07-19.2,7.1-5.67,1.97-12.37,4.13-20.11,6.29-9,2.51-19.42,5.03-31.33,7.25-6.26,1.16-12.92,2.25-20.01,3.21-8.65,1.17-17.91,2.17-27.82,2.89-6.41,.47-13.08,.84-20.03,1.07-5.85,.2-11.9,.3-18.15,.3-4.93,0-9.73-.07-14.41-.21-6.97-.2-13.67-.54-20.08-1.01-7.98-.57-15.53-1.35-22.66-2.26-7.16-.92-13.88-1.99-20.17-3.17-12.08-2.26-22.56-4.93-31.43-7.72-7.94-2.49-14.58-5.08-19.91-7.56-9.67-4.51-15.01-8.65-15.93-11.2-7.07-19.53-6.11-36.54-2.3-49.97,4.23-14.94,11.98-25.45,16.14-30.07,4.17-4.64,10.43-1.63,10.43-1.63,0,0,2.55,1.74,7.71,4.36,4.33,2.19,10.49,5,18.55,7.91,6.37,2.3,13.91,4.66,22.65,6.83,5.98,1.5,12.54,2.89,19.66,4.13,5.79,.99,11.97,1.89,18.53,2.61,6.33,.7,12.99,1.27,20.03,1.63,5.09,.27,10.37,.44,15.85,.5,4.28,.04,8.46-.01,12.55-.14,6.96-.23,13.65-.7,20.05-1.4,8.25-.86,16.05-2.08,23.35-3.51,6.96-1.37,13.49-2.95,19.55-4.65,9.64-2.71,18.13-5.72,25.4-8.7,7.44-3.04,13.6-6.03,18.41-8.6,8.17-4.36,12.44-7.47,12.44-7.47,0,0,5.97-3.22,9.67,1.68,12.47,16.53,19.82,40.72,21.3,60.15,1.23,16.01-1.54,28.77-8.72,31.35Z" style="fill: #c1272d;"/>
        <path d="M462.16,372.95c-4.11,1.48-10.45,4.07-19.2,7.1-5.67,1.97-12.37,4.13-20.11,6.29-9,2.51-19.42,5.03-31.33,7.25-6.26,1.16-12.92,2.25-20.01,3.21-8.65,1.17-17.91,2.17-27.82,2.89-6.41,.47-13.08,.84-20.03,1.07-5.85,.2-11.9,.3-18.15,.3-4.93,0-9.73-.07-14.41-.21-6.97-.2-13.67-.54-20.08-1.01-7.98-.57-15.53-1.35-22.66-2.26-7.16-.92-13.88-1.99-20.17-3.17-12.08-2.26-22.56-4.93-31.43-7.72-7.94-2.49-14.58-5.08-19.91-7.56-9.67-4.51-15.01-8.65-15.93-11.2-7.07-19.53-6.11-36.54-2.3-49.97,17.22,14.92,37.95,25.96,59.64,33.2,31.57,10.54,65.21,13.49,98.5,13.33,52.12-.25,104.17-8.04,154.13-22.89,1.23,16.01-1.54,28.77-8.72,31.35Z" style="fill: #42210b; opacity: .2;"/>
      </g>
    </g>
  </g>
</svg>