<?xml version="1.0" encoding="UTF-8"?>
<svg id="tree" xmlns="http://www.w3.org/2000/svg" xmlns:xlink="http://www.w3.org/1999/xlink" viewBox="0 0 986.34 1223.87">
  <defs>
    <linearGradient id="_무제_그라디언트" data-name="무제 그라디언트" x1="443.05" y1="664.07" x2="443.05" y2="663.07" gradientTransform="translate(-436505.79 181525.32) scale(986.34 -272.19)" gradientUnits="userSpaceOnUse">
      <stop offset="0" stop-color="#27630f"/>
      <stop offset="1" stop-color="#7dc108"/>
    </linearGradient>
    <linearGradient id="_무제_그라디언트_2" data-name="무제 그라디언트 2" x1="442.95" y1="664.42" x2="442.95" y2="663.42" gradientTransform="translate(-354630.65 154762.92) scale(801.76 -232)" gradientUnits="userSpaceOnUse">
      <stop offset="0" stop-color="#27630f"/>
      <stop offset="1" stop-color="#7dc108"/>
    </linearGradient>
    <linearGradient id="_무제_그라디언트_3" data-name="무제 그라디언트 3" x1="442.83" y1="664.32" x2="442.83" y2="663.32" gradientTransform="translate(-293720.36 161369.36) scale(664.4 -242.24)" gradientUnits="userSpaceOnUse">
      <stop offset="0" stop-color="#27630f"/>
      <stop offset="1" stop-color="#7dc108"/>
    </linearGradient>
    <linearGradient id="_무제_그라디언트_4" data-name="무제 그라디언트 4" x1="442.69" y1="664.37" x2="442.69" y2="663.37" gradientTransform="translate(-243315.49 157780.23) scale(550.74 -237.07)" gradientUnits="userSpaceOnUse">
      <stop offset="0" stop-color="#27630f"/>
      <stop offset="1" stop-color="#7dc108"/>
    </linearGradient>
    <linearGradient id="_무제_그라디언트_5" data-name="무제 그라디언트 5" x1="442.31" y1="663.71" x2="442.31" y2="662.71" gradientTransform="translate(-164954.45 218347.5) scale(374.01 -328.98)" gradientUnits="userSpaceOnUse">
      <stop offset="0" stop-color="#27630f"/>
      <stop offset="1" stop-color="#7dc108"/>
    </linearGradient>
  </defs>
  <path d="M417.69,997.99s-4.88,170.48-41.89,212.36c42.86,16.56,190.93,21.43,199.7-5.84,8.76-27.28-26.3-132.49-25.33-185.09s-132.48-21.43-132.48-21.43h0Z" style="fill: #754c29;"/>
  <path d="M165.11,774.23s-73.19,133.72-119.94,170.74c-46.76,37.01-68.19,75.01-9.74,68.19s118.84-44.81,157.81-9.74c38.96,35.07,82.8,46.76,136.38,19.48,53.58-27.28,95.47-2,144.17,15.07,48.71,17.08,59.43,7.34,98.39-20.91s75.98,0,102.29,7.79c26.3,7.79,48.71,15.59,99.36-17.53,50.66-33.12,91.57-31.17,150.02-5.85,58.45,25.33,82.81,14.62,42.86-27.27-39.94-41.89-149.27-195.52-149.27-195.52l-652.33-4.45h0Z" style="fill: url(#_무제_그라디언트);"/>
  <path d="M217.73,619.59s-50.79,134.43-92.68,158.78c-41.89,24.36-10.71,75.99,63.32,30.2,74.04-45.78,80.86-30.19,130.53,0,49.68,30.2,84.75,19.48,120.8-10.72,36.05-30.19,91.57-17.96,151.97,29.02,60.39,46.97,98.39,18.72,134.43-16.35,36.05-35.07,86.7,14.61,147.1,28.25,60.39,13.64,32.14-17.54-8.77-58.45s-85.73-160.73-85.73-160.73H217.73Z" style="fill: url(#_무제_그라디언트_2);"/>
  <path d="M183.5,607.9c-37.02,27.27-14.34,65.26,34.23,41.89,48.57-23.38,94.36-33.12,154.75-4.87,60.4,28.24,68.8,7.79,120.61-14.62,51.81-22.4,96.62,18.51,146.3,40.92,49.68,22.4,68.19,26.3,82.81-12.67,14.61-38.96,58.45-22.4,73.06-8.76,14.61,13.63,69.17,18.5,0-50.66-69.16-69.17-83.78-153.35-83.78-153.35H269.44s-48.91,134.84-85.94,162.12Z" style="fill: url(#_무제_그라디언트_3);"/>
  <path d="M233.18,448.14c-32.15,26.3-12.67,87.67,44.81,47.73,57.48-39.94,42.86-54.55,143.2-6.82,100.34,47.73,128.59,17.54,167.56-2.92,38.96-20.46,84.75-21.43,134.43,10.71,49.68,32.15,62.34-12.66,18.51-42.86-43.84-30.2-109.11-171.45-109.11-171.45l-296.02-5.06s-71.24,144.37-103.38,170.67h0Z" style="fill: url(#_무제_그라디언트_4);"/>
  <path d="M540.04,75.04s-44.81-142.23-87.67-35.07c-42.86,107.16-111.06,200.67-145.15,235.74-34.1,35.07-19.49,71.83,33.11,42.74,52.6-29.1,75.01-45.66,108.14-22.28,33.12,23.38,80.85-16.56,105.21,0,24.35,16.56,61.37,42.86,91.57,12.67,30.2-30.2,15.59-49.68,0-67.22-15.58-17.53-86.7-108.13-105.21-166.57h0Z" style="fill: url(#_무제_그라디언트_5);"/>
</svg>